<svg version="1" xmlns="http://www.w3.org/2000/svg" width="346.667" height="346.667" viewBox="0 0 260.000000 260.000000"><path d="M126.6 23.1c-4.7 10.3-11.7 35.1-10.3 36.6.3.3 1.9-.4 3.5-1.6 1.7-1.2 3.3-2.1 3.6-2.1 1 0 .6 72.4-.3 73.9-1.3 2-8.6-.2-10.5-3.2-1.5-2.2-13.8-43.8-13.2-44.4.1-.2 1.7.2 3.5.8 1.8.6 3.5.9 3.8.6.8-.8-5.7-9.4-10.9-14.4C91.3 65 80.6 58 78.4 58c-.8 0 .2 2.8 2.6 7.2 9.3 17.3 17 42.5 19.4 63.5.7 6.2 1.5 11.6 1.9 11.9.3.3 1.4.1 2.4-.4 1.4-.8 3.8-.1 10.3 2.8l8.5 3.9.3 5 .3 5.1h12.8l.3-5.1.3-5.2 8.5-3.7c6.5-2.9 8.9-3.5 10.4-2.8 2.6 1.4 3.2 0 3.9-8.5 1.6-19 9.2-45.5 18.2-63.4 2.9-5.7 4.7-10.3 4.1-10.3-2 0-11 5.7-15.7 9.8-5.3 4.7-13.5 15-12.6 15.8.3.4 2 .1 3.8-.5 1.8-.6 3.4-1 3.6-.8.6.6-11.8 42.1-13.3 44.4-1.6 2.6-9 5.1-10.4 3.7-.7-.7-.9-14.7-.8-37.8l.3-36.8 2.7 2.1c1.4 1.2 3.1 2.1 3.6 2.1 1.1 0-.8-10.9-3.4-20-1.9-6.5-8.2-22.1-9.5-23.4-.5-.6-2.2 2-4.3 6.5zM123 161.5c0 2.4.2 2.5 7.5 2.5s7.5-.1 7.5-2.5-.2-2.5-7.5-2.5-7.5.1-7.5 2.5zM124 168c0 1.9.5 2.1 6.2 1.8 5-.2 6.3-.6 6.6-2.1.3-1.5-.5-1.7-6.2-1.7-6 0-6.6.2-6.6 2zM123 174v3.1l7.3-.3c7-.3 7.2-.4 7.5-3.1l.3-2.7H123v3zM124 179.7c0 2.5 4.8 48 5.6 52.6.3 2.1.7 3.7.9 3.5.3-.3 6.5-54.1 6.5-56.6 0-.8-2-1.2-6.5-1.2-5.5 0-6.5.3-6.5 1.7z"/></svg>